<svg version="1.1" xmlns="http://www.w3.org/2000/svg" viewBox="0 0 250 250"><desc>Created with Snap</desc><defs></defs><g transform="matrix(0.0257,0,0,0.0257,6.8387,161.7457)"><rect x="-266.2" y="-3213.8999999999996" width="9731.4" height="3567.1" fill="#ffcad4" style=""></rect><g transform="matrix(2.8035,0,0,2.8035,3618.2892,-2972.0206)"><g><path d="M198.5,26.7c-12,16.2-26.1,47.4-31.5,69.7c-2.3,9.5-4.8,30-4.8,38.9c0,16.1,3.9,46.5,6.2,49c0.4,0.4,6.6,1.5,13.8,2.2   c48.8,5.3,102.2,29,114.2,50.9c2.8,5,3.1,6.4,3.1,15.4c0,10.5-1.5,16.5-6.5,26.9c-3.2,6.7-11,13.4-21.6,18.7   c-6.5,3.2-8.7,3.9-16.8,4.2c-9,0.5-9.7,0.4-15.4-2.7c-11-5.8-23.1-16.9-33.9-31.4c-5.6-7.4-7.6-10.3-14.1-20.5   c-5.9-9.5-18.4-36-22-47.2l-4-11.7h-8.6c-32.9,0-70.8,11.5-98.3,29.8C41.7,230.2,15,253.6,15,257c0,7.8,17,44.7,28.3,61.3   c8,11.9,26.3,31.7,36.4,39.6c13.1,10.1,36.9,24.5,40.6,24.5c0.5,0,4.4-3.5,8.6-7.9c9.4-9.6,31.3-27,44.8-35.6   c29-18.4,56.4-27,71.6-22.4c9.9,2.9,19.5,12.5,26.8,26.8c2.9,5.6,3.2,7.2,3.1,15.7c-0.1,9.4-2.2,20-5.2,26.1   c-2.7,5.4-10.7,12.8-16.4,15c-14.1,5.6-36.1,7.6-59.4,5.4c-17.1-1.7-43.2-7.2-59.8-12.9l-12.7-4.4l-2.2,2.6   c-7.8,9.4-21.9,33.1-27.1,45.8c-10.2,24.7-14,44.1-14.1,73.2c0,12,0.5,24,1.4,29.3l1.4,9.1l8.8,3.2c17.4,6.4,43.1,11.6,63.6,13   c8.7,0.6,28.9-0.8,40.9-3c10.7-2,32.8-9,43.4-13.8c9-4.2,8.7-3.3,6.9-16c-0.6-4.3-1-17.2-1-28.7c0-31.1,3.5-53.6,11.3-73.1   c6.5-16.2,11.4-22.5,21.4-27.8c8-4.3,31.6-3.9,40.5,0.7c6.8,3.4,19.3,16.4,23.3,24.1c0.9,1.8,2.2,6.4,2.8,10.2   c0.9,5.8,0.8,8-0.5,12.8c-2.1,7-6.4,15.7-12.4,25c-13.4,20.7-44.4,49.7-68.8,64.3l-10.2,6.2l0.6,4.3c0.9,5.7,8,26.8,12.6,37.3   c11.5,26.1,30.1,49.7,54.4,68.9c12.9,10.2,28.9,20.8,31.6,20.8s18.7-10.5,31.6-20.8c25.2-19.8,43.4-43.4,55.3-71.3   c4.7-11,10.7-29,11.7-34.9l0.6-4.3l-10.2-6.2c-24.4-14.6-55.4-43.6-68.8-64.3c-6.1-9.4-10.3-18.1-12.4-25c-1.4-4.8-1.5-7-0.5-12.8   c0.6-3.9,1.9-8.5,2.8-10.2c3.8-7.4,13.7-18,21.9-23.4c5.8-3.9,28-5.9,37-3.4c5.7,1.7,13.4,7.2,17.7,12.9   c7.8,10.5,14.9,32.6,18.1,56.7c1.9,14.3,2.3,50.1,0.6,61.9c-1.8,12.6-2.1,11.8,7,16c10.5,4.8,32.6,11.8,43.3,13.8   c12,2.2,32.2,3.7,40.9,3c20.5-1.5,46.1-6.7,63.6-13l8.8-3.2l1.4-9.1c0.7-4.9,1.4-17.6,1.4-28.3c0-28.3-3.1-46-12.5-70.3   c-5.8-15.2-22.2-43.2-29-49.6l-2.6-2.5l-12.3,4.3c-42.6,14.7-92.6,17.8-118.9,7.4c-5.6-2.2-13.7-9.6-16.4-15   c-3-6.1-5.1-16.7-5.2-26.1c-0.1-8.5,0.2-10,3.1-15.7c7.3-14.3,16.9-23.9,26.8-26.8c15.1-4.5,42.8,4.2,71.4,22.3   c13.7,8.7,35.6,26.1,45,35.7c4.2,4.4,8,7.9,8.6,7.9c3.7,0,27.4-14.4,40.6-24.5c10.1-7.8,28.4-27.7,36.4-39.6   C668,301.7,685,264.8,685,257c0-3.4-26.7-26.8-43.2-37.9c-27.6-18.4-65.4-29.8-98.3-29.8h-8.6l-3.8,11.2   c-4.4,13.3-16.1,37.6-24.4,50.9c-14.5,23.3-31,40.8-45.8,48.6c-5.7,3.1-6.5,3.2-15.4,2.7c-8.1-0.3-10.3-0.9-16.8-4.2   c-10.6-5.3-18.4-12-21.6-18.7c-5-10.4-6.5-16.4-6.5-26.9c0-9.1,0.3-10.4,3.1-15.4c12-21.9,65.3-45.6,114.2-50.9   c7.2-0.7,13.4-1.8,13.9-2.3c0.4-0.4,1.8-6.4,3-13.3c2.9-16.9,3.2-47.4,0.6-62.6c-3.1-17.7-8.6-34.2-17.3-52.2   c-8.2-17-17-31.5-19.6-32.6c-2.4-0.9-21.1,1.7-35.8,5c-40.3,9.2-70.2,26.3-98,55.9c-13.3,14.1-12.9,12.8-5.8,23.9   c3.2,5.1,6.4,10,6.9,10.9c6.6,10.7,21.1,47.5,24.8,62.9c2.4,10,4.1,26.5,3.7,35.2c-0.7,15.5-7.4,25.5-21.9,32.4   c-7.3,3.4-17.4,6.3-22.3,6.3s-15-2.8-22.3-6.3c-14.5-6.9-21.2-16.8-21.9-32.4c-0.4-8.6,1.3-25.2,3.7-35.4   c3.3-14.4,18.3-52.1,24.8-62.7c0.5-0.8,3.7-5.7,6.9-10.9c7.1-11.1,7.4-9.8-5.8-23.9c-21.6-23.1-45.4-38.9-72.9-48.7   c-16.5-5.9-47.8-12.5-59.1-12.5C201.9,23.3,199.9,24.7,198.5,26.7z" fill="#292929" style=""></path></g><desc>Created with Snap</desc><defs></defs></g><g><g transform="matrix(1,0,0,-1,0,0)"><path d="M499 660L459 614Q381 672 305 672Q255 672 219 648Q183 624 164 590Q146 556 135 504Q125 452 122 414Q120 376 120 325Q120 275 138 211Q157 148 201 93Q245 38 303 38Q366 38 496 104Q509 85 530 41Q404 -46 305 -46Q241 -46 188 -7Q135 32 104 92Q74 152 57 217Q41 283 41 342Q41 407 51 468Q61 530 85 592Q109 654 157 692Q206 730 273 730Q331 730 393 710Q455 690 499 660ZM582 335Q582 369 582 386Q582 404 583 440Q585 476 587 497Q590 518 595 551Q600 585 608 605Q616 626 626 652Q637 678 653 694Q669 710 688 724Q707 739 733 746Q759 753 790 753Q852 753 898 728Q944 704 970 667Q996 630 1011 576Q1027 522 1031 473Q1036 424 1036 365Q1036 325 1034 293Q1033 261 1028 220Q1024 180 1015 149Q1007 118 992 86Q977 55 956 34Q936 14 905 1Q874 -12 836 -12Q774 -12 729 3Q685 18 656 45Q628 72 611 116Q595 160 588 212Q582 264 582 335ZM964 327Q964 376 956 429Q949 482 931 543Q914 604 876 642Q838 681 785 681Q745 681 714 627Q684 574 671 507Q658 441 658 382Q658 341 658 319Q659 298 662 258Q665 219 670 196Q676 173 688 143Q700 113 716 96Q733 80 759 67Q786 55 819 54Q892 58 928 136Q964 214 964 327ZM1117 6L1120 728Q1342 726 1463 614Q1584 503 1584 288Q1584 219 1548 162Q1512 105 1455 71Q1399 37 1333 18Q1268 0 1204 0Q1164 0 1117 6ZM1192 67L1209 67Q1266 67 1319 80Q1372 94 1417 121Q1462 148 1489 195Q1516 243 1516 305Q1516 389 1465 475Q1415 562 1343 615Q1272 669 1211 669Q1198 669 1186 666Q1186 606 1192 67ZM1648 -3L1646 46Q1738 61 1760 62Q1761 96 1761 164Q1761 254 1757 423Q1753 593 1752 648L1651 653L1644 711Q1685 710 1771 710Q1859 710 1902 709L1905 659Q1888 652 1857 650Q1826 649 1818 648Q1821 620 1821 507Q1822 394 1822 257Q1822 120 1824 62Q1840 59 1885 55Q1930 51 1941 49L1939 -3Q1909 -2 1844 -2Q1810 -2 1743 -3Q1676 -3 1648 -3ZM2002 28L2015 720L2069 720L2396 99L2396 178Q2396 480 2407 721L2464 710Q2475 493 2482 -5Q2461 -14 2438 -14Q2404 -14 2367 6Q2306 100 2215 281Q2125 462 2087 529Q2088 461 2088 281Q2089 101 2092 8Q2083 -23 2057 -23Q2039 -23 2022 -8Q2006 7 2002 28ZM2988 212L2891 230L2880 275Q2900 278 2974 284Q3048 291 3067 295L3067 -23L2989 -39Q2988 -29 2988 8Q2988 46 2987 57Q2987 55 2980 45Q2973 36 2958 22Q2943 8 2923 -5Q2903 -18 2872 -27Q2841 -36 2807 -36Q2564 -36 2564 342Q2564 407 2574 468Q2584 530 2608 592Q2632 654 2680 692Q2729 730 2796 730Q2854 730 2916 710Q2978 690 3022 660L2982 614Q2904 672 2828 672Q2778 672 2742 648Q2706 624 2687 590Q2669 556 2658 504Q2648 452 2645 414Q2643 376 2643 325Q2643 203 2688 125Q2733 48 2805 48Q2836 48 2865 58Q2895 68 2916 82Q2937 96 2954 111Q2971 126 2979 136Q2988 146 2988 148L2988 212ZM3730 720L3790 717Q3789 715 3712 394Q3635 73 3607 1Q3597 -1 3587 -1Q3559 -1 3524 6Q3497 86 3442 330Q3380 75 3353 1Q3343 -1 3333 -1Q3305 -1 3270 6Q3255 51 3235 129Q3216 207 3195 302Q3174 397 3158 470Q3143 544 3126 628Q3109 712 3107 720L3164 720Q3204 536 3308 130Q3323 184 3359 318Q3395 452 3407 495Q3393 559 3361 720L3418 720Q3458 536 3562 130Q3716 692 3730 720ZM3814 -3L3812 46Q3904 61 3926 62Q3927 96 3927 164Q3927 254 3923 423Q3919 593 3918 648L3817 653L3810 711Q3851 710 3937 710Q4025 710 4068 709L4071 659Q4054 652 4023 650Q3992 649 3984 648Q3987 620 3987 507Q3988 394 3988 257Q3988 120 3990 62Q4006 59 4051 55Q4096 51 4107 49L4105 -3Q4075 -2 4010 -2Q3976 -2 3909 -3Q3842 -3 3814 -3ZM4137 671L4127 716L4509 738Q4534 737 4551 720Q4568 703 4568 683Q4568 670 4558 660Q4548 650 4528 648L4360 657Q4385 304 4397 15Q4388 -15 4363 -15Q4345 -15 4328 -1Q4311 14 4307 35Q4309 89 4309 199Q4309 240 4308 322Q4308 404 4308 445Q4308 564 4312 660Q4199 668 4137 671ZM4917 719L4975 731Q4993 590 4997 339Q5002 89 5007 8Q4998 -23 4972 -23Q4954 -23 4937 -8Q4921 7 4917 28Q4918 64 4918 148L4918 345Q4896 344 4856 340Q4817 337 4784 335Q4752 333 4723 333Q4697 333 4685 334Q4687 273 4692 161Q4697 50 4699 8Q4690 -23 4664 -23Q4646 -23 4629 -8Q4613 7 4609 28Q4612 114 4614 362Q4617 610 4624 731L4669 721Q4669 718 4669 711Q4670 705 4670 701Q4683 455 4685 393Q4719 396 4757 399Q4796 403 4842 407Q4889 412 4915 414Q4916 414 4916 424Q4916 434 4916 505Q4917 576 4917 719ZM5436 723L5491 706Q5482 689 5446 610Q5411 532 5369 449Q5327 366 5287 303Q5291 254 5292 151Q5293 48 5296 3Q5287 1 5250 1Q5215 1 5208 3Q5211 46 5212 150Q5214 255 5218 303Q5168 386 5106 535Q5045 684 5028 719L5095 724L5253 384Q5271 416 5335 543Q5400 670 5436 723ZM5703 725L5779 720Q5807 596 5894 369Q5981 143 6009 31Q6009 2 5999 -13Q5989 -27 5974 -27Q5961 -27 5949 -17Q5938 -6 5934 13Q5925 57 5876 189Q5670 215 5617 221Q5604 185 5585 104Q5566 23 5555 -8Q5540 -26 5521 -26Q5500 -26 5485 -8Q5470 11 5470 38Q5502 155 5586 382Q5670 609 5703 725ZM5738 624Q5718 503 5627 269L5739 269Q5815 269 5866 264Q5763 485 5738 624ZM6036 57L6050 113Q6137 66 6221 66Q6281 66 6323 90Q6366 115 6366 170Q6366 219 6330 259Q6294 300 6243 331Q6192 362 6141 394Q6090 427 6054 474Q6018 522 6018 580Q6018 651 6069 709Q6120 768 6192 768Q6247 768 6314 746Q6382 724 6428 702L6416 662Q6302 701 6224 701Q6176 701 6142 670Q6108 639 6108 590Q6108 553 6127 523Q6146 493 6176 471Q6207 449 6244 428Q6282 407 6319 383Q6356 359 6386 331Q6417 303 6436 260Q6455 218 6455 165Q6455 90 6407 42Q6359 -5 6282 -5Q6216 -5 6141 13Q6067 32 6036 57ZM6814 719L6872 731Q6890 590 6894 339Q6899 89 6904 8Q6895 -23 6869 -23Q6851 -23 6834 -8Q6818 7 6814 28Q6815 64 6815 148L6815 345Q6793 344 6753 340Q6714 337 6681 335Q6649 333 6620 333Q6594 333 6582 334Q6584 273 6589 161Q6594 50 6596 8Q6587 -23 6561 -23Q6543 -23 6526 -8Q6510 7 6506 28Q6509 114 6511 362Q6514 610 6521 731L6566 721Q6566 718 6566 711Q6567 705 6567 701Q6580 455 6582 393Q6616 396 6654 399Q6693 403 6739 407Q6786 412 6812 414Q6813 414 6813 424Q6813 434 6813 505Q6814 576 6814 719ZM7001 125Q7028 125 7046 101Q7065 78 7065 48Q7065 26 7054 12Q7044 -1 7026 -1Q6998 -1 6981 22Q6965 45 6965 76Q6965 98 6974 111Q6984 125 7001 125ZM7584 660L7544 614Q7466 672 7390 672Q7340 672 7304 648Q7268 624 7249 590Q7231 556 7220 504Q7210 452 7207 414Q7205 376 7205 325Q7205 275 7223 211Q7242 148 7286 93Q7330 38 7388 38Q7451 38 7581 104Q7594 85 7615 41Q7489 -46 7390 -46Q7326 -46 7273 -7Q7220 32 7189 92Q7159 152 7142 217Q7126 283 7126 342Q7126 407 7136 468Q7146 530 7170 592Q7194 654 7242 692Q7291 730 7358 730Q7416 730 7478 710Q7540 690 7584 660ZM7667 335Q7667 369 7667 386Q7667 404 7668 440Q7670 476 7672 497Q7675 518 7680 551Q7685 585 7693 605Q7701 626 7711 652Q7722 678 7738 694Q7754 710 7773 724Q7792 739 7818 746Q7844 753 7875 753Q7937 753 7983 728Q8029 704 8055 667Q8081 630 8096 576Q8112 522 8116 473Q8121 424 8121 365Q8121 325 8119 293Q8118 261 8113 220Q8109 180 8100 149Q8092 118 8077 86Q8062 55 8041 34Q8021 14 7990 1Q7959 -12 7921 -12Q7859 -12 7814 3Q7770 18 7741 45Q7713 72 7696 116Q7680 160 7673 212Q7667 264 7667 335ZM8049 327Q8049 376 8041 429Q8034 482 8016 543Q7999 604 7961 642Q7923 681 7870 681Q7830 681 7799 627Q7769 574 7756 507Q7743 441 7743 382Q7743 341 7743 319Q7744 298 7747 258Q7750 219 7755 196Q7761 173 7773 143Q7785 113 7801 96Q7818 80 7844 67Q7871 55 7904 54Q7977 58 8013 136Q8049 214 8049 327ZM8202 6L8205 728Q8427 726 8548 614Q8669 503 8669 288Q8669 219 8633 162Q8597 105 8540 71Q8484 37 8418 18Q8353 0 8289 0Q8249 0 8202 6ZM8277 67L8294 67Q8351 67 8404 80Q8457 94 8502 121Q8547 148 8574 195Q8601 243 8601 305Q8601 389 8550 475Q8500 562 8428 615Q8357 669 8296 669Q8283 669 8271 666Q8271 606 8277 67ZM9131 45L9141 0Q9102 0 8999 -4Q8897 -7 8851 -7Q8777 -7 8750 0Q8760 110 8762 368Q8764 626 8775 728Q8809 725 8955 723Q9102 721 9147 714L9158 669Q9113 661 8978 650Q8843 639 8836 638Q8837 615 8840 544Q8844 473 8845 427Q8879 423 8969 415Q9059 408 9083 406L9093 360Q8882 341 8846 340Q8846 296 8844 206Q8843 117 8843 75Q9072 54 9131 45Z" fill="#292929" style=""></path></g></g></g></svg>